# xmcd
#
# Track frame offsets: 
#        150
#        12843
#        29618
#        68548
#        81341
#        96913
#        122536
#        135810
#        150703
#        172925
#        198004
#        209914
#
# Disc length: 3207 seconds
#
# Revision: 0
# Processed by: cddbd v1.5.2PL0 Copyright (c) Steve Scherf et al.
# Submitted via: ExactAudioCopyFreeDBPlugin 1.0
#
DISCID=950c850c
DTITLE=Jessi Colter - The Psalms
DYEAR=2017
DGENRE=Country
TTITLE0=Psalm 150: Praise Ye The Lord
TTITLE1=Psalm 75: Unto Thee
TTITLE2=Psalm 114: And The Mountains Skip Like Rams
TTITLE3=Psalm 99: He Is Holy
TTITLE4=Psalm 24: Who Is The King Of Glory
TTITLE5=Psalm 136: Mercy And Loving Kindness
TTITLE6=Psalm 151: King David's Last Psalm
TTITLE7=Psalm 21: Be Thou Exalted
TTITLE8=Psalm 45: My Song To A King
TTITLE9=Psalm 73: Like A Beast
TTITLE10=Psalm 23: The Lord Is My Shepherd
TTITLE11=Psalm 72: Arise O King Of Old
EXTD=
EXTT0=
EXTT1=
EXTT2=
EXTT3=
EXTT4=
EXTT5=
EXTT6=
EXTT7=
EXTT8=
EXTT9=
EXTT10=
EXTT11=
PLAYORDER=
